<mxfile>
    <diagram id="C5RBs43oDa-KdzZeNtuy" name="Page-1">
        <mxGraphModel dx="820" dy="575" grid="1" gridSize="10" guides="1" tooltips="1" connect="1" arrows="1" fold="1" page="1" pageScale="1" pageWidth="827" pageHeight="1169" math="0" shadow="0">
            <root>
                <mxCell id="WIyWlLk6GJQsqaUBKTNV-0"/>
                <mxCell id="WIyWlLk6GJQsqaUBKTNV-1" parent="WIyWlLk6GJQsqaUBKTNV-0"/>
                <mxCell id="9P1wEPpSRjyUiTsZXYzf-4" value="ITask_1" style="swimlane;fontStyle=1;align=center;verticalAlign=top;childLayout=stackLayout;horizontal=1;startSize=26;horizontalStack=0;resizeParent=1;resizeParentMax=0;resizeLast=0;collapsible=1;marginBottom=0;" parent="WIyWlLk6GJQsqaUBKTNV-1" vertex="1">
                    <mxGeometry y="33" width="230" height="100" as="geometry"/>
                </mxCell>
                <mxCell id="9P1wEPpSRjyUiTsZXYzf-5" value="+ loc_Task1: int&#10;+ result: " style="text;strokeColor=none;fillColor=none;align=left;verticalAlign=top;spacingLeft=4;spacingRight=4;overflow=hidden;rotatable=0;points=[[0,0.5],[1,0.5]];portConstraint=eastwest;" parent="9P1wEPpSRjyUiTsZXYzf-4" vertex="1">
                    <mxGeometry y="26" width="230" height="26" as="geometry"/>
                </mxCell>
                <mxCell id="9P1wEPpSRjyUiTsZXYzf-6" value="" style="line;strokeWidth=1;fillColor=none;align=left;verticalAlign=middle;spacingTop=-1;spacingLeft=3;spacingRight=3;rotatable=0;labelPosition=right;points=[];portConstraint=eastwest;" parent="9P1wEPpSRjyUiTsZXYzf-4" vertex="1">
                    <mxGeometry y="52" width="230" height="8" as="geometry"/>
                </mxCell>
                <mxCell id="9P1wEPpSRjyUiTsZXYzf-7" value="+ evaluate_Task1(): ResultofTask&#10;+ result_of_task(): prints the task result" style="text;strokeColor=none;fillColor=none;align=left;verticalAlign=top;spacingLeft=4;spacingRight=4;overflow=hidden;rotatable=0;points=[[0,0.5],[1,0.5]];portConstraint=eastwest;" parent="9P1wEPpSRjyUiTsZXYzf-4" vertex="1">
                    <mxGeometry y="60" width="230" height="40" as="geometry"/>
                </mxCell>
                <mxCell id="9P1wEPpSRjyUiTsZXYzf-8" value="ITask_2" style="swimlane;fontStyle=1;align=center;verticalAlign=top;childLayout=stackLayout;horizontal=1;startSize=26;horizontalStack=0;resizeParent=1;resizeParentMax=0;resizeLast=0;collapsible=1;marginBottom=0;" parent="WIyWlLk6GJQsqaUBKTNV-1" vertex="1">
                    <mxGeometry x="270" y="40" width="160" height="86" as="geometry"/>
                </mxCell>
                <mxCell id="9P1wEPpSRjyUiTsZXYzf-9" value="+ loc_Task2: int" style="text;strokeColor=none;fillColor=none;align=left;verticalAlign=top;spacingLeft=4;spacingRight=4;overflow=hidden;rotatable=0;points=[[0,0.5],[1,0.5]];portConstraint=eastwest;" parent="9P1wEPpSRjyUiTsZXYzf-8" vertex="1">
                    <mxGeometry y="26" width="160" height="26" as="geometry"/>
                </mxCell>
                <mxCell id="9P1wEPpSRjyUiTsZXYzf-10" value="" style="line;strokeWidth=1;fillColor=none;align=left;verticalAlign=middle;spacingTop=-1;spacingLeft=3;spacingRight=3;rotatable=0;labelPosition=right;points=[];portConstraint=eastwest;" parent="9P1wEPpSRjyUiTsZXYzf-8" vertex="1">
                    <mxGeometry y="52" width="160" height="8" as="geometry"/>
                </mxCell>
                <mxCell id="9P1wEPpSRjyUiTsZXYzf-11" value="+ evaluate_Task2(): " style="text;strokeColor=none;fillColor=none;align=left;verticalAlign=top;spacingLeft=4;spacingRight=4;overflow=hidden;rotatable=0;points=[[0,0.5],[1,0.5]];portConstraint=eastwest;" parent="9P1wEPpSRjyUiTsZXYzf-8" vertex="1">
                    <mxGeometry y="60" width="160" height="26" as="geometry"/>
                </mxCell>
                <mxCell id="9P1wEPpSRjyUiTsZXYzf-12" value="ITask_3" style="swimlane;fontStyle=1;align=center;verticalAlign=top;childLayout=stackLayout;horizontal=1;startSize=30;horizontalStack=0;resizeParent=1;resizeParentMax=0;resizeLast=0;collapsible=1;marginBottom=0;" parent="WIyWlLk6GJQsqaUBKTNV-1" vertex="1">
                    <mxGeometry x="470" y="40" width="160" height="90" as="geometry"/>
                </mxCell>
                <mxCell id="9P1wEPpSRjyUiTsZXYzf-13" value="+ loc_Task3: int" style="text;strokeColor=none;fillColor=none;align=left;verticalAlign=top;spacingLeft=4;spacingRight=4;overflow=hidden;rotatable=0;points=[[0,0.5],[1,0.5]];portConstraint=eastwest;" parent="9P1wEPpSRjyUiTsZXYzf-12" vertex="1">
                    <mxGeometry y="30" width="160" height="26" as="geometry"/>
                </mxCell>
                <mxCell id="9P1wEPpSRjyUiTsZXYzf-14" value="" style="line;strokeWidth=1;fillColor=none;align=left;verticalAlign=middle;spacingTop=-1;spacingLeft=3;spacingRight=3;rotatable=0;labelPosition=right;points=[];portConstraint=eastwest;" parent="9P1wEPpSRjyUiTsZXYzf-12" vertex="1">
                    <mxGeometry y="56" width="160" height="8" as="geometry"/>
                </mxCell>
                <mxCell id="9P1wEPpSRjyUiTsZXYzf-15" value="+ evaluate_Task3(): " style="text;strokeColor=none;fillColor=none;align=left;verticalAlign=top;spacingLeft=4;spacingRight=4;overflow=hidden;rotatable=0;points=[[0,0.5],[1,0.5]];portConstraint=eastwest;" parent="9P1wEPpSRjyUiTsZXYzf-12" vertex="1">
                    <mxGeometry y="64" width="160" height="26" as="geometry"/>
                </mxCell>
                <mxCell id="9P1wEPpSRjyUiTsZXYzf-16" value="ILoad_Balancer" style="swimlane;fontStyle=1;align=center;verticalAlign=top;childLayout=stackLayout;horizontal=1;startSize=26;horizontalStack=0;resizeParent=1;resizeParentMax=0;resizeLast=0;collapsible=1;marginBottom=0;fillColor=#a20025;strokeColor=#6F0000;fontColor=#ffffff;" parent="WIyWlLk6GJQsqaUBKTNV-1" vertex="1">
                    <mxGeometry x="590" y="449" width="210" height="108" as="geometry"/>
                </mxCell>
                <mxCell id="9P1wEPpSRjyUiTsZXYzf-17" value="+ Result: ......&#10;+ capacity" style="text;strokeColor=none;fillColor=none;align=left;verticalAlign=top;spacingLeft=4;spacingRight=4;overflow=hidden;rotatable=0;points=[[0,0.5],[1,0.5]];portConstraint=eastwest;" parent="9P1wEPpSRjyUiTsZXYzf-16" vertex="1">
                    <mxGeometry y="26" width="210" height="34" as="geometry"/>
                </mxCell>
                <mxCell id="9P1wEPpSRjyUiTsZXYzf-18" value="" style="line;strokeWidth=1;fillColor=none;align=left;verticalAlign=middle;spacingTop=-1;spacingLeft=3;spacingRight=3;rotatable=0;labelPosition=right;points=[];portConstraint=eastwest;" parent="9P1wEPpSRjyUiTsZXYzf-16" vertex="1">
                    <mxGeometry y="60" width="210" height="8" as="geometry"/>
                </mxCell>
                <mxCell id="9P1wEPpSRjyUiTsZXYzf-19" value="+ round_robin(task_order): FinalResult&#10;+ least_workload(task_order): Result" style="text;strokeColor=none;fillColor=none;align=left;verticalAlign=top;spacingLeft=4;spacingRight=4;overflow=hidden;rotatable=0;points=[[0,0.5],[1,0.5]];portConstraint=eastwest;" parent="9P1wEPpSRjyUiTsZXYzf-16" vertex="1">
                    <mxGeometry y="68" width="210" height="40" as="geometry"/>
                </mxCell>
                <mxCell id="9P1wEPpSRjyUiTsZXYzf-20" value="driving_class" style="swimlane;fontStyle=1;align=center;verticalAlign=top;childLayout=stackLayout;horizontal=1;startSize=26;horizontalStack=0;resizeParent=1;resizeParentMax=0;resizeLast=0;collapsible=1;marginBottom=0;fillColor=#d80073;strokeColor=#A50040;fontColor=#ffffff;" parent="WIyWlLk6GJQsqaUBKTNV-1" vertex="1">
                    <mxGeometry x="250" y="650" width="330" height="160" as="geometry"/>
                </mxCell>
                <mxCell id="9P1wEPpSRjyUiTsZXYzf-21" value="+ task_order: List&lt;int&gt;&#10;+ algo_select: int&#10;+ " style="text;strokeColor=none;fillColor=none;align=left;verticalAlign=top;spacingLeft=4;spacingRight=4;overflow=hidden;rotatable=0;points=[[0,0.5],[1,0.5]];portConstraint=eastwest;" parent="9P1wEPpSRjyUiTsZXYzf-20" vertex="1">
                    <mxGeometry y="26" width="330" height="44" as="geometry"/>
                </mxCell>
                <mxCell id="9P1wEPpSRjyUiTsZXYzf-22" value="" style="line;strokeWidth=1;fillColor=none;align=left;verticalAlign=middle;spacingTop=-1;spacingLeft=3;spacingRight=3;rotatable=0;labelPosition=right;points=[];portConstraint=eastwest;" parent="9P1wEPpSRjyUiTsZXYzf-20" vertex="1">
                    <mxGeometry y="70" width="330" height="8" as="geometry"/>
                </mxCell>
                <mxCell id="9P1wEPpSRjyUiTsZXYzf-23" value="+ get_order(): List&lt;task_order&gt;&#10;+ select_algo(): int&lt;algo_select&gt;&#10;+ start_load_balancer(task_order, algo_select): FinalResult&#10;&#10;+ void_main(): None" style="text;strokeColor=none;fillColor=none;align=left;verticalAlign=top;spacingLeft=4;spacingRight=4;overflow=hidden;rotatable=0;points=[[0,0.5],[1,0.5]];portConstraint=eastwest;" parent="9P1wEPpSRjyUiTsZXYzf-20" vertex="1">
                    <mxGeometry y="78" width="330" height="82" as="geometry"/>
                </mxCell>
                <mxCell id="9P1wEPpSRjyUiTsZXYzf-24" value="IEdge_1" style="swimlane;fontStyle=1;align=center;verticalAlign=top;childLayout=stackLayout;horizontal=1;startSize=26;horizontalStack=0;resizeParent=1;resizeParentMax=0;resizeLast=0;collapsible=1;marginBottom=0;" parent="WIyWlLk6GJQsqaUBKTNV-1" vertex="1">
                    <mxGeometry x="10" y="230" width="240" height="100" as="geometry"/>
                </mxCell>
                <mxCell id="9P1wEPpSRjyUiTsZXYzf-25" value="+ capacity_1: int" style="text;strokeColor=none;fillColor=none;align=left;verticalAlign=top;spacingLeft=4;spacingRight=4;overflow=hidden;rotatable=0;points=[[0,0.5],[1,0.5]];portConstraint=eastwest;" parent="9P1wEPpSRjyUiTsZXYzf-24" vertex="1">
                    <mxGeometry y="26" width="240" height="26" as="geometry"/>
                </mxCell>
                <mxCell id="9P1wEPpSRjyUiTsZXYzf-26" value="" style="line;strokeWidth=1;fillColor=none;align=left;verticalAlign=middle;spacingTop=-1;spacingLeft=3;spacingRight=3;rotatable=0;labelPosition=right;points=[];portConstraint=eastwest;" parent="9P1wEPpSRjyUiTsZXYzf-24" vertex="1">
                    <mxGeometry y="52" width="240" height="8" as="geometry"/>
                </mxCell>
                <mxCell id="9P1wEPpSRjyUiTsZXYzf-27" value="+ evaluating_at(): evaluated at which node&#10;+ evaluate_Iedge1(Task): Result" style="text;strokeColor=none;fillColor=none;align=left;verticalAlign=top;spacingLeft=4;spacingRight=4;overflow=hidden;rotatable=0;points=[[0,0.5],[1,0.5]];portConstraint=eastwest;" parent="9P1wEPpSRjyUiTsZXYzf-24" vertex="1">
                    <mxGeometry y="60" width="240" height="40" as="geometry"/>
                </mxCell>
                <mxCell id="9P1wEPpSRjyUiTsZXYzf-28" value="IEdge_2" style="swimlane;fontStyle=1;align=center;verticalAlign=top;childLayout=stackLayout;horizontal=1;startSize=26;horizontalStack=0;resizeParent=1;resizeParentMax=0;resizeLast=0;collapsible=1;marginBottom=0;" parent="WIyWlLk6GJQsqaUBKTNV-1" vertex="1">
                    <mxGeometry x="350" y="230" width="160" height="90" as="geometry"/>
                </mxCell>
                <mxCell id="9P1wEPpSRjyUiTsZXYzf-29" value="+ capacity_2: int" style="text;strokeColor=none;fillColor=none;align=left;verticalAlign=top;spacingLeft=4;spacingRight=4;overflow=hidden;rotatable=0;points=[[0,0.5],[1,0.5]];portConstraint=eastwest;" parent="9P1wEPpSRjyUiTsZXYzf-28" vertex="1">
                    <mxGeometry y="26" width="160" height="26" as="geometry"/>
                </mxCell>
                <mxCell id="9P1wEPpSRjyUiTsZXYzf-30" value="" style="line;strokeWidth=1;fillColor=none;align=left;verticalAlign=middle;spacingTop=-1;spacingLeft=3;spacingRight=3;rotatable=0;labelPosition=right;points=[];portConstraint=eastwest;" parent="9P1wEPpSRjyUiTsZXYzf-28" vertex="1">
                    <mxGeometry y="52" width="160" height="8" as="geometry"/>
                </mxCell>
                <mxCell id="9P1wEPpSRjyUiTsZXYzf-31" value="+ evaluate(Task): Result" style="text;strokeColor=none;fillColor=none;align=left;verticalAlign=top;spacingLeft=4;spacingRight=4;overflow=hidden;rotatable=0;points=[[0,0.5],[1,0.5]];portConstraint=eastwest;" parent="9P1wEPpSRjyUiTsZXYzf-28" vertex="1">
                    <mxGeometry y="60" width="160" height="30" as="geometry"/>
                </mxCell>
                <mxCell id="9P1wEPpSRjyUiTsZXYzf-32" value="IEdge_3" style="swimlane;fontStyle=1;align=center;verticalAlign=top;childLayout=stackLayout;horizontal=1;startSize=30;horizontalStack=0;resizeParent=1;resizeParentMax=0;resizeLast=0;collapsible=1;marginBottom=0;" parent="WIyWlLk6GJQsqaUBKTNV-1" vertex="1">
                    <mxGeometry x="600" y="230" width="160" height="90" as="geometry"/>
                </mxCell>
                <mxCell id="9P1wEPpSRjyUiTsZXYzf-33" value="+ capacity_3: int" style="text;strokeColor=none;fillColor=none;align=left;verticalAlign=top;spacingLeft=4;spacingRight=4;overflow=hidden;rotatable=0;points=[[0,0.5],[1,0.5]];portConstraint=eastwest;" parent="9P1wEPpSRjyUiTsZXYzf-32" vertex="1">
                    <mxGeometry y="30" width="160" height="26" as="geometry"/>
                </mxCell>
                <mxCell id="9P1wEPpSRjyUiTsZXYzf-34" value="" style="line;strokeWidth=1;fillColor=none;align=left;verticalAlign=middle;spacingTop=-1;spacingLeft=3;spacingRight=3;rotatable=0;labelPosition=right;points=[];portConstraint=eastwest;" parent="9P1wEPpSRjyUiTsZXYzf-32" vertex="1">
                    <mxGeometry y="56" width="160" height="8" as="geometry"/>
                </mxCell>
                <mxCell id="9P1wEPpSRjyUiTsZXYzf-35" value="+ evaluate(Task): Result" style="text;strokeColor=none;fillColor=none;align=left;verticalAlign=top;spacingLeft=4;spacingRight=4;overflow=hidden;rotatable=0;points=[[0,0.5],[1,0.5]];portConstraint=eastwest;" parent="9P1wEPpSRjyUiTsZXYzf-32" vertex="1">
                    <mxGeometry y="64" width="160" height="26" as="geometry"/>
                </mxCell>
                <mxCell id="9P1wEPpSRjyUiTsZXYzf-36" value="Idata_centre" style="swimlane;fontStyle=1;align=center;verticalAlign=top;childLayout=stackLayout;horizontal=1;startSize=26;horizontalStack=0;resizeParent=1;resizeParentMax=0;resizeLast=0;collapsible=1;marginBottom=0;fillColor=#0050ef;strokeColor=#001DBC;fontColor=#ffffff;" parent="WIyWlLk6GJQsqaUBKTNV-1" vertex="1">
                    <mxGeometry x="50" y="458" width="160" height="90" as="geometry"/>
                </mxCell>
                <mxCell id="9P1wEPpSRjyUiTsZXYzf-37" value="+ capacity_dc: int" style="text;strokeColor=none;fillColor=none;align=left;verticalAlign=top;spacingLeft=4;spacingRight=4;overflow=hidden;rotatable=0;points=[[0,0.5],[1,0.5]];portConstraint=eastwest;" parent="9P1wEPpSRjyUiTsZXYzf-36" vertex="1">
                    <mxGeometry y="26" width="160" height="26" as="geometry"/>
                </mxCell>
                <mxCell id="9P1wEPpSRjyUiTsZXYzf-38" value="" style="line;strokeWidth=1;fillColor=none;align=left;verticalAlign=middle;spacingTop=-1;spacingLeft=3;spacingRight=3;rotatable=0;labelPosition=right;points=[];portConstraint=eastwest;" parent="9P1wEPpSRjyUiTsZXYzf-36" vertex="1">
                    <mxGeometry y="52" width="160" height="8" as="geometry"/>
                </mxCell>
                <mxCell id="9P1wEPpSRjyUiTsZXYzf-39" value="+ evaluate(Task): Result" style="text;strokeColor=none;fillColor=none;align=left;verticalAlign=top;spacingLeft=4;spacingRight=4;overflow=hidden;rotatable=0;points=[[0,0.5],[1,0.5]];portConstraint=eastwest;" parent="9P1wEPpSRjyUiTsZXYzf-36" vertex="1">
                    <mxGeometry y="60" width="160" height="30" as="geometry"/>
                </mxCell>
                <mxCell id="1" value="ITask_4" style="swimlane;fontStyle=1;align=center;verticalAlign=top;childLayout=stackLayout;horizontal=1;startSize=30;horizontalStack=0;resizeParent=1;resizeParentMax=0;resizeLast=0;collapsible=1;marginBottom=0;" parent="WIyWlLk6GJQsqaUBKTNV-1" vertex="1">
                    <mxGeometry x="660" y="40" width="160" height="90" as="geometry"/>
                </mxCell>
                <mxCell id="2" value="+ loc_Task4: int" style="text;strokeColor=none;fillColor=none;align=left;verticalAlign=top;spacingLeft=4;spacingRight=4;overflow=hidden;rotatable=0;points=[[0,0.5],[1,0.5]];portConstraint=eastwest;" parent="1" vertex="1">
                    <mxGeometry y="30" width="160" height="26" as="geometry"/>
                </mxCell>
                <mxCell id="3" value="" style="line;strokeWidth=1;fillColor=none;align=left;verticalAlign=middle;spacingTop=-1;spacingLeft=3;spacingRight=3;rotatable=0;labelPosition=right;points=[];portConstraint=eastwest;" parent="1" vertex="1">
                    <mxGeometry y="56" width="160" height="8" as="geometry"/>
                </mxCell>
                <mxCell id="4" value="+ evaluate_Task4(): " style="text;strokeColor=none;fillColor=none;align=left;verticalAlign=top;spacingLeft=4;spacingRight=4;overflow=hidden;rotatable=0;points=[[0,0.5],[1,0.5]];portConstraint=eastwest;" parent="1" vertex="1">
                    <mxGeometry y="64" width="160" height="26" as="geometry"/>
                </mxCell>
                <mxCell id="5" value="get_order: User i/p the order in which he/she wants the execution of task, and the function fills the value of task_order&lt;br&gt;select_algo: User selects by which algorithm he/she wants to execute load balancer, and the function fills the value of select_algo&lt;br&gt;start_load_balancer: It calls the round_robin/least_workload function, and passes task order in them and returns the FINAL RESULT THAT NEEDS TO BE SHOWN TO USER&lt;br&gt;&lt;br&gt;round_robin: It consistes of round robin algorithm. It checks first is the capacity of edge sufficient for the task and then assigns it to the edge. If not assigns it to the Data_centre. And returns the o/p of the task&lt;br&gt;least_workload: Same as round_robin. Additionally keeps note of remaining capacity of the edge node&lt;br&gt;&lt;br&gt;evaluate: It calls the required function of the required task interface&lt;br&gt;&lt;br&gt;evaluate_task: It contains teh actual Logic of the Task&lt;br&gt;&lt;br&gt;#least_workload is better from rounrobin because we dont want data_centre" style="text;html=1;align=left;verticalAlign=middle;resizable=0;points=[];autosize=1;" parent="WIyWlLk6GJQsqaUBKTNV-1" vertex="1">
                    <mxGeometry x="20" y="845" width="1110" height="170" as="geometry"/>
                </mxCell>
            </root>
        </mxGraphModel>
    </diagram>
</mxfile>